<svg xmlns="http://www.w3.org/2000/svg" xmlns:xlink="http://www.w3.org/1999/xlink" aria-hidden="true" role="img" class="iconify iconify--logos" width="35.93" height="32" preserveAspectRatio="xMidYMid meet" viewBox="0 0 256 228"><path fill="#00D8FF" d="M210.483 73.824a171.49 171.49 0 0 0-8.24-2.597c.465-1.9.893-3.777 1.273-5.621c6.238-30.281 2.16-54.676-11.769-62.708c-13.355-7.7-35.196.329-57.254 19.526a171.23 171.23 0 0 0-6.375 5.848a155.866 155.866 0 0 0-4.241-3.917C100.759 3.829 77.587-4.822 63.673 3.233C50.33 10.957 46.379 33.89 51.995 62.588a170.974 170.974 0 0 0 1.892 8.48c-3.28.932-6.445 1.924-9.474 2.98C17.309 83.498 0 98.307 0 113.668c0 15.865 18.582 31.778 46.812 41.427a145.52 145.52 0 0 0 6.921 2.165a167.467 167.467 0 0 0-2.01 9.138c-5.354 28.2-1.173 50.591 12.134 58.266c13.744 7.926 36.812-.22 59.273-19.855a145.567 145.567 0 0 0 5.342-4.923a168.064 168.064 0 0 0 6.92 6.314c21.758 18.722 43.246 26.282 56.54 18.586c13.731-7.949 18.194-32.003 12.4-61.268a145.016 145.016 0 0 0-1.535-6.842c1.62-.48 3.21-.974 4.76-1.488c29.348-9.723 48.443-25.443 48.443-41.52c0-15.417-17.868-30.326-45.517-39.844Zm-6.365 70.984c-1.4.463-2.836.91-4.3 1.345c-3.24-10.257-7.612-21.163-12.963-32.432c5.106-11 9.31-21.767 12.459-31.957c2.619.758 5.16 1.557 7.61 2.4c23.69 8.156 38.14 20.213 38.14 29.504c0 9.896-15.606 22.743-40.946 31.14Zm-10.514 20.834c2.562 12.94 2.927 24.64 1.23 33.787c-1.524 8.219-4.59 13.698-8.382 15.893c-8.067 4.67-25.32-1.4-43.927-17.412a156.726 156.726 0 0 1-6.437-5.87c7.214-7.889 14.423-17.06 21.459-27.246c12.376-1.098 24.068-2.894 34.671-5.345a134.17 134.17 0 0 1 1.386 6.193ZM87.276 214.515c-7.882 2.783-14.16 2.863-17.955.675c-8.075-4.657-11.432-22.636-6.853-46.752a156.923 156.923 0 0 1 1.869-8.499c10.486 2.32 22.093 3.988 34.498 4.994c7.084 9.967 14.501 19.128 21.976 27.15a134.668 134.668 0 0 1-4.877 4.492c-9.933 8.682-19.886 14.842-28.658 17.94ZM50.35 144.747c-12.483-4.267-22.792-9.812-29.858-15.863c-6.35-5.437-9.555-10.836-9.555-15.216c0-9.322 13.897-21.212 37.076-29.293c2.813-.98 5.757-1.905 8.812-2.773c3.204 10.42 7.406 21.315 12.477 32.332c-5.137 11.18-9.399 22.249-12.634 32.792a134.718 134.718 0 0 1-6.318-1.979Zm12.378-84.26c-4.811-24.587-1.616-43.134 6.425-47.789c8.564-4.958 27.502 2.111 47.463 19.835a144.318 144.318 0 0 1 3.841 3.545c-7.438 7.987-14.787 17.08-21.808 26.988c-12.04 1.116-23.565 2.908-34.161 5.309a160.342 160.342 0 0 1-1.76-7.887Zm110.427 27.268a347.8 347.8 0 0 0-7.785-12.803c8.168 1.033 15.994 2.404 23.343 4.08c-2.206 7.072-4.956 14.465-8.193 22.045a381.151 381.151 0 0 0-7.365-13.322Zm-45.032-43.861c5.044 5.465 10.096 11.566 15.065 18.186a322.04 322.04 0 0 0-30.257-.006c4.974-6.559 10.069-12.652 15.192-18.18ZM82.802 87.83a323.167 323.167 0 0 0-7.227 13.238c-3.184-7.553-5.909-14.98-8.134-22.152c7.304-1.634 15.093-2.97 23.209-3.984a321.524 321.524 0 0 0-7.848 12.897Zm8.081 65.352c-8.385-.936-16.291-2.203-23.593-3.793c2.26-7.3 5.045-14.885 8.298-22.6a321.187 321.187 0 0 0 7.257 13.246c2.594 4.48 5.28 8.868 8.038 13.147Zm37.542 31.03c-5.184-5.592-10.354-11.779-15.403-18.433c4.902.192 9.899.29 14.978.29c5.218 0 10.376-.117 15.453-.343c-4.985 6.774-10.018 12.97-15.028 18.486Zm52.198-57.817c3.422 7.8 6.306 15.345 8.596 22.52c-7.422 1.694-15.436 3.058-23.88 4.071a382.417 382.417 0 0 0 6.859-13.026a347.403 347.403 0 0 0 7.425-13.565Zm-16.898 8.101a358.557 358.557 0 0 1-12.281 19.815a329.4 329.4 0 0 1-23.444.823c-7.967 0-15.716-.248-23.178-.732a306.803 306.803 0 0 1-10.088-11.944 361.046 361.046 0 0 1-4.709-5.908c-.645-.794-1.288-1.591-1.887-2.409a343.81 343.81 0 0 1-5.227-6.947a324.973 324.973 0 0 1-3.874-5.737c-1.42-2.24-2.773-4.558-3.994-6.941a322.482 322.482 0 0 1-2.568-5.571a347.904 347.904 0 0 1-2.011-5.528c-.408-1.242-.798-2.498-1.14-3.784a337.498 337.498 0 0 1-1.272-4.772a295.553 295.553 0 0 1-.988-4.706c-.185-.92-.348-1.847-.485-2.784a267.19 267.19 0 0 1-.378-2.823c-.07-1.024-.13-2.05-.17-3.077a231.734 231.734 0 0 1-.1-3.111c-.024-1.1-.024-2.2 0-3.3.023-1.038.07-2.075.125-3.111.056-1.036.13-2.07.23-3.1.1-1.03.23-2.055.378-3.075.15-1.02.32-2.03.51-3.033.19-1.003.408-1.998.65-2.98.242-.98.508-1.943.798-2.894.29-.95.608-1.885.948-2.8.34-.915.702-1.813 1.084-2.696a382.03 382.03 0 0 1 5.66-10.687c1.36-2.368 2.797-4.653 4.302-6.84a398.977 398.977 0 0 1 11.773-15.537c1.53-1.84 3.12-3.64 4.76-5.37a421.818 421.818 0 0 1 16.667-15.977c1.91-1.7 3.87-3.35 5.89-4.94a433.13 433.13 0 0 1 19.077-14.25c2.16-1.5 4.37-2.95 6.62-4.33a451.075 451.075 0 0 1 21.528-13.497c2.4-1.38 4.85-2.7 7.35-3.94a471.03 471.03 0 0 1 24.1-11.816c2.56-1.18 5.16-2.3 7.8-3.35a493.01 493.01 0 0 1 26.924-9.97c2.72-.92 5.48-1.78 8.27-2.58a516.516 516.516 0 0 1 30.04-7.87c2.88-.67 5.8-1.28 8.75-1.82a539.93 539.93 0 0 1 33.314-5.083c2.99-.38 6.01-.72 9.05-1.02a562.414 562.414 0 0 1 36.628-2.413c3.07-.15 6.15-.25 9.25-.29a578.888 578.888 0 0 1 39.95.29c3.1.04 6.18.14 9.25.29a596.338 596.338 0 0 1 36.628 2.413c3.04.3 6.06.64 9.05 1.02a619.753 619.753 0 0 1 33.314 5.083c2.95.54 5.87 1.15 8.75 1.82a643.267 643.267 0 0 1 30.04 7.87c2.79.8 5.55 1.66 8.27 2.58a665.247 665.247 0 0 1 26.924 9.97c2.64 1.05 5.24 2.17 7.8 3.35a685.203 685.203 0 0 1 24.1 11.816c2.5 1.24 4.95 2.56 7.35 3.94a703.148 703.148 0 0 1 21.528 13.497c2.25 1.38 4.46 2.83 6.62 4.33a721.46 721.46 0 0 1 19.077 14.25c2.02 1.59 3.98 3.24 5.89 4.94a743.404 743.404 0 0 1 16.667 15.977c1.64 1.73 3.23 3.53 4.76 5.37a765.35 765.35 0 0 1 11.773 15.537c1.505 2.187 2.942 4.472 4.302 6.84a787.294 787.294 0 0 1 5.66 10.687c.382.883.744 1.781 1.084 2.696.34.915.658 1.85.948 2.8.29.95.556 1.914.798 2.894.242.982.46 1.977.65 2.98.19 1.003.36 2.013.51 3.033.148 1.02.278 2.045.378 3.075.1 1.03.174 2.064.23 3.1.055 1.036.102 2.073.125 3.111.024 1.1.024 2.2 0 3.3-.023 1.038-.07 2.075-.125 3.111-.056 1.036-.13 2.07-.23 3.1-.1 1.03-.23 2.055-.378 3.075-.15 1.02-.32 2.03-.51 3.033-.19 1.003-.408 1.998-.65 2.98-.242.98-.508 1.943-.798 2.894-.29.95-.608 1.885-.948 2.8-.34.915-.702 1.813-1.084 2.696a382.03 382.03 0 0 1-5.66 10.687c-1.36 2.368-2.797 4.653-4.302 6.84a398.977 398.977 0 0 1-11.773 15.537c-1.53 1.84-3.12 3.64-4.76 5.37a421.818 421.818 0 0 1-16.667 15.977c-1.91 1.7-3.87 3.35-5.89 4.94a433.13 433.13 0 0 1-19.077 14.25c-2.16 1.5-4.37 2.95-6.62-4.33a451.075 451.075 0 0 1-21.528-13.497c-2.4-1.38-4.85-2.7-7.35-3.94a471.03 471.03 0 0 1-24.1-11.816c-2.56-1.18-5.16-2.3-7.8-3.35a493.01 493.01 0 0 1-26.924-9.97c-2.72-.92-5.48-1.78-8.27-2.58a516.516 516.516 0 0 1-30.04-7.87c-2.88-.67-5.8-1.28-8.75-1.82a539.93 539.93 0 0 1-33.314-5.083c-2.99-.38-6.01-.72-9.05-1.02a562.414 562.414 0 0 1-36.628-2.413c-3.07-.15-6.15-.25-9.25-.29a578.888 578.888 0 0 1-39.95.29c-3.1.04-6.18.14-9.25.29a596.338 596.338 0 0 1-36.628 2.413c-3.04.3-6.06.64-9.05 1.02a619.753 619.753 0 0 1-33.314 5.083c-2.95.54-5.87 1.15-8.75 1.82a643.267 643.267 0 0 1-30.04 7.87c-2.79.8-5.55 1.66-8.27 2.58a665.247 665.247 0 0 1-26.924 9.97c-2.64 1.05-5.24 2.17-7.8 3.35a685.203 685.203 0 0 1-24.1 11.816c-2.5 1.24-4.95 2.56-7.35 3.94a703.148 703.148 0 0 1-21.528 13.497c-2.25 1.38-4.46 2.83-6.62 4.33a721.46 721.46 0 0 1-19.077 14.25c-2.02 1.59-3.98 3.24-5.89 4.94a743.404 743.404 0 0 1-16.667 15.977c-1.64 1.73-3.23 3.53-4.76 5.37a765.35 765.35 0 0 1-11.773 15.537c-1.505 2.187-2.942 4.472-4.302 6.84a787.294 787.294 0 0 1-5.66 10.687c-.382.883-.744 1.781-1.084 2.696-.34.915-.658 1.85-.948 2.8-.29.95-.556 1.914-.798 2.894-.242.982-.46 1.977-.65 2.98-.19 1.003-.36 2.013-.51 3.033-.148 1.02-.278 2.045-.378 3.075-.1 1.03-.174 2.064-.23 3.1-.055 1.036-.102 2.073-.125 3.111-.024 1.1-.024 2.2 0 3.3.023 1.038.07 2.075.125 3.111.056 1.036.13 2.07.23 3.1.1 1.03.23 2.055.378 3.075.15 1.02.32 2.03.51 3.033.19 1.003.408 1.998.65 2.98.242.98.508 1.943.798 2.894.29.95.608 1.885.948 2.8.34.915.702 1.813 1.084 2.696a382.03 382.03 0 0 0 5.66 10.687c1.36 2.368 2.797 4.653 4.302 6.84a398.977 398.977 0 0 0 11.773 15.537c1.53 1.84 3.12 3.64 4.76 5.37a421.818 421.818 0 0 0 16.667 15.977c1.91 1.7 3.87 3.35 5.89 4.94a433.13 433.13 0 0 0 19.077 14.25c2.16 1.5 4.37 2.95 6.62 4.33a451.075 451.075 0 0 0 21.528 13.497c2.4 1.38 4.85 2.7 7.35 3.94a471.03 471.03 0 0 0 24.1 11.816c2.56 1.18 5.16 2.3 7.8 3.35a493.01 493.01 0 0 0 26.924 9.97c2.72.92 5.48 1.78 8.27 2.58a516.516 516.516 0 0 0 30.04 7.87c2.88.67 5.8 1.28 8.75 1.82a539.93 539.93 0 0 0 33.314 5.083c2.99.38 6.01.72 9.05 1.02a562.414 562.414 0 0 0 36.628 2.413c3.07.15 6.15.25 9.25.29a578.888 578.888 0 0 0 39.95-.29c3.1-.04 6.18-.14 9.25-.29a596.338 596.338 0 0 0 36.628-2.413c3.04-.3 6.06-.64 9.05-1.02a619.753 619.753 0 0 0 33.314-5.083c2.95-.54 5.87-1.15 8.75-1.82a643.267 643.267 0 0 0 30.04-7.87c2.79-.8 5.55-1.66 8.27-2.58a665.247 665.247 0 0 0 26.924-9.97c2.64-1.05 5.24-2.17 7.8-3.35a685.203 685.203 0 0 0 24.1-11.816c2.5-1.24 4.95-2.56 7.35-3.94a703.148 703.148 0 0 0 21.528-13.497c2.25-1.38 4.46-2.83 6.62-4.33a721.46 721.46 0 0 0 19.077-14.25c2.02-1.59 3.98-3.24 5.89-4.94a743.404 743.404 0 0 0 16.667-15.977c1.64-1.73 3.23-3.53 4.76-5.37a765.35 765.35 0 0 0 11.773-15.537c1.505-2.187 2.942-4.472 4.302-6.84a787.294 787.294 0 0 0 5.66-10.687c.382-.883.744-1.781 1.084-2.696.34-.915.658-1.85.948-2.8.29-.95.556-1.914.798-2.894.242-.98.46-1.977.65-2.98.19-1.003.36-2.013.51-3.033.148-1.02.278-2.045.378-3.075.1-1.03.174-2.064.23-3.1.055-1.036.102-2.073.125-3.111.024-1.1.024-2.2 0-3.3-.023-1.038-.07-2.075-.125-3.111-.056-1.036-.13-2.07-.23-3.1-.1-1.03-.23-2.055-.378-3.075-.15-1.02-.32-2.03-.51-3.033-.19-1.003-.408-1.998-.65-2.98-.242-.98-.508-1.943-.798-2.894-.29-.95-.608-1.885-.948-2.8-.34-.915-.702-1.813-1.084-2.696a382.03 382.03 0 0 0-5.66-10.687c-1.36-2.368-2.797-4.653-4.302-6.84a398.977 398.977 0 0 0-11.773-15.537c-1.53-1.84-3.12-3.64-4.76-5.37a421.818 421.818 0 0 0-16.667-15.977c-1.91-1.7-3.87-3.35-5.89-4.94a433.13 433.13 0 0 0-19.077-14.25c-2.16-1.5-4.37-2.95-6.62-4.33a451.075 451.075 0 0 0-21.528-13.497c-2.4-1.38-4.85-2.7-7.35-3.94a471.03 471.03 0 0 0-24.1-11.816c-2.56-1.18-5.16-2.3-7.8-3.35a493.01 493.01 0 0 0-26.924-9.97c-2.72-.92-5.48-1.78-8.27-2.58a516.516 516.516 0 0 0-30.04-7.87c-2.88-.67-5.8-1.28-8.75-1.82a539.93 539.93 0 0 0-33.314-5.083c-2.99-.38-6.01-.72-9.05-1.02a562.414 562.414 0 0 0-36.628-2.413c-3.07-.15-6.15-.25-9.25-.29a578.888 578.888 0 0 1-39.95.29c-3.1.04-6.18.14-9.25.29a596.338 596.338 0 0 1-36.628 2.413c-3.04.3-6.06.64-9.05 1.02a619.753 619.753 0 0 1-33.314 5.083c-2.95.54-5.87 1.15-8.75 1.82a643.267 643.267 0 0 1-30.04 7.87c-2.79.8-5.55 1.66-8.27 2.58a665.247 665.247 0 0 1-26.924 9.97c-2.64 1.05-5.24 2.17-7.8 3.35a685.203 685.203 0 0 1-24.1 11.816c-2.5 1.24-4.95 2.56-7.35 3.94a703.148 703.148 0 0 1-21.528 13.497c-2.25 1.38-4.46 2.83-6.62 4.33a721.46 721.46 0 0 1-19.077 14.25c-2.02 1.59-3.98 3.24-5.89 4.94a743.404 743.404 0 0 1-16.667 15.977c-1.64 1.73-3.23 3.53-4.76 5.37a765.35 765.35 0 0 1-11.773 15.537c-1.505 2.187-2.942 4.472-4.302 6.84a787.294 787.294 0 0 1-5.66 10.687c-.382.883-.744 1.781-1.084 2.696-.34.915-.658 1.85-.948 2.8-.29.95-.556 1.914-.798 2.894-.242.98-.46 1.977-.65 2.98-.19 1.003-.36 2.013-.51 3.033-.148 1.02-.278 2.045-.378 3.075-.1 1.03-.174 2.064-.23 3.1-.055 1.036-.102 2.073-.125 3.111-.024 1.1-.024 2.2 0 3.3.023 1.038.07 2.075.125 3.111.056 1.036.13 2.07.23 3.1.1 1.03.23 2.055.378 3.075.15 1.02.32 2.03.51 3.033.19 1.003.408 1.998.65 2.98.242.98.508 1.943.798 2.894.29.95.608 1.885.948 2.8.34.915.702 1.813 1.084 2.696a382.03 382.03 0 0 0 5.66 10.687c1.36 2.368 2.797 4.653 4.302 6.84a398.977 398.977 0 0 0 11.773 15.537c1.53 1.84 3.12 3.64 4.76 5.37a421.818 421.818 0 0 0 16.667 15.977c1.91 1.7 3.87 3.35 5.89 4.94a433.13 433.13 0 0 0 19.077 14.25c2.16 1.5 4.37 2.95 6.62 4.33a451.075 451.075 0 0 0 21.528 13.497c2.4 1.38 4.85 2.7 7.35 3.94a471.03 471.03 0 0 0 24.1 11.816c2.56 1.18 5.16 2.3 7.8 3.35a493.01 493.01 0 0 0 26.924 9.97c2.72.92 5.48 1.78 8.27 2.58a516.516 516.516 0 0 0 30.04 7.87c2.88.67 5.8 1.28 8.75 1.82a539.93 539.93 0 0 0 33.314 5.083c2.99.38 6.01.72 9.05 1.02a562.414 562.414 0 0 0 36.628 2.413c3.07.15 6.15.25 9.25.29a578.888 578.888 0 0 0 39.95-.29c3.1-.04 6.18-.14 9.25-.29a596.338 596.338 0 0 0 36.628-2.413c3.04-.3 6.06-.64 9.05-1.02a619.753 619.753 0 0 0 33.314-5.083c2.95-.54 5.87-1.15 8.75-1.82a643.267 643.267 0 0 0 30.04-7.87c2.79-.8 5.55-1.66 8.27-2.58a665.247 665.247 0 0 0 26.924-9.97c2.64-1.05 5.24-2.17 7.8-3.35a685.203 685.203 0 0 0 24.1-11.816c2.5-1.24-4.95-2.56-7.35-3.94a703.148 703.148 0 0 0-21.528-13.497c-2.25-1.38-4.46-2.83-6.62-4.33a721.46 721.46 0 0 0-19.077-14.25c-2.02-1.59-3.98-3.24-5.89-4.94a743.404 743.404 0 0 0-16.667-15.977c-1.64-1.73-3.23-3.53-4.76-5.37a765.35 765.35 0 0 0-11.773-15.537c-1.505-2.187-2.942-4.472-4.302-6.84a787.294 787.294 0 0 0-5.66-10.687c-.382-.883-.744-1.781-1.084-2.696-.34-.915-.658-1.85-.948-2.8-.29-.95-.556-1.914-.798-2.894-.242-.98-.46-1.977-.65-2.98-.19-1.003-.36-2.013-.51-3.033-.148-1.02-.278-2.045-.378-3.075-.1-1.03-.174-2.064-.23-3.1-.055-1.036-.102-2.073-.125-3.111-.024-1.1-.024-2.2 0-3.3.023-1.038.07-2.075.125-3.111.056-1.036.13-2.07.23-3.1.1-1.03.23-2.055.378-3.075.15-1.02.32-2.03.51-3.033.19-1.003.408-1.998.65-2.98.242-.98.508-1.943.798-2.894.29-.95.608-1.885.948-2.8.34-.915.702-1.813 1.084-2.696a382.03 382.03 0 0 0 5.66-10.687c1.36-2.368 2.797-4.653 4.302-6.84a398.977 398.977 0 0 0 11.773-15.537c1.53-1.84 3.12-3.64 4.76-5.37a421.818 421.818 0 0 0 16.667-15.977c1.91-1.7 3.87-3.35 5.89-4.94a433.13 433.13 0 0 0 19.077-14.25c2.16-1.5 4.37-2.95 6.62-4.33a451.075 451.075 0 0 0 21.528-13.497c2.4-1.38 4.85-2.7 7.35-3.94a471.03 471.03 0 0 0 24.1-11.816c2.56-1.18 5.16-2.3 7.8-3.35a493.01 493.01 0 0 0 26.924-9.97c2.72-.92 5.48-1.78 8.27-2.58a516.516 516.516 0 0 0 30.04-7.87c2.88-.67 5.8-1.28 8.75-1.82a539.93 539.93 0 0 0 33.314-5.083c2.99-.38 6.01.72 9.05-1.02a562.414 562.414 0 0 0 36.628-2.413c3.07-.15 6.15-.25 9.25-.29a578.888 578.888 0 0 0 39.95.29c3.1.04 6.18.14 9.25.29a596.338 596.338 0 0 0 36.628 2.413c3.04.3 6.06.64 9.05 1.02a619.753 619.753 0 0 0 33.314 5.083c2.95.54 5.87 1.15 8.75 1.82a643.267 643.267 0 0 0 30.04 7.87c2.79.8 5.55 1.66 8.27 2.58a665.247 665.247 0 0 0 26.924 9.97c2.64 1.05 5.24 2.17 7.8 3.35a685.203 685.203 0 0 0 24.1 11.816c2.5 1.24 4.95 2.56 7.35 3.94a703.148 703.148 0 0 0 21.528 13.497c2.25 1.38 4.46 2.83 6.62 4.33a721.46 721.46 0 0 0 19.077 14.25c2.02 1.59 3.98 3.24 5.89 4.94a743.404 743.404 0 0 0 16.667 15.977c1.64 1.73 3.23 3.53 4.76 5.37a765.35 765.35 0 0 0 11.773 15.537c1.505 2.187 2.942 4.472 4.302 6.84a787.294 787.294 0 0 0 5.66 10.687c.382.883.744 1.781 1.084 2.696.34.915.658 1.85.948 2.8.29.95.556 1.914.798 2.894.242.98.46 1.977.65 2.98.19 1.003.36 2.013.51 3.033.148 1.02.278 2.045.378 3.075.1 1.03.174 2.064.23 3.1.055 1.036.102 2.073.125 3.111.024 1.1.024 2.2 0 3.3-.023 1.038-.07 2.075-.125 3.111-.056 1.036-.13 2.07-.23 3.1-.1 1.03-.23 2.055-.378 3.075-.15 1.02-.32 2.03-.51 3.033-.19 1.003-.408 1.998-.65 2.98-.242.98-.508 1.943-.798 2.894-.29.95-.608 1.885-.948 2.8-.34.915-.702 1.813-1.084 2.696a382.03 382.03 0 0 0-5.66 10.687c-1.36 2.368-2.797 4.653-4.302 6.84a398.977 398.977 0 0 0-11.773 15.537c-1.53 1.84-3.12 3.64-4.76 5.37a421.818 421.818 0 0 0-16.667 15.977c-1.91 1.7-3.87 3.35-5.89 4.94a433.13 433.13 0 0 0-19.077 14.25c-2.16 1.5-4.37 2.95-6.62 4.33a451.075 451.075 0 0 0-21.528 13.497c-2.4 1.38-4.85 2.7-7.35 3.94a471.03 471.03 0 0 0-24.1 11.816c-2.56 1.18-5.16 2.3-7.8 3.35a493.01 493.01 0 0 0-26.924 9.97c-2.72.92-5.48 1.78-8.27 2.58a516.516 516.516 0 0 0-30.04 7.87c-2.88.67-5.8 1.28-8.75 1.82a539.93 539.93 0 0 0-33.314 5.083c-2.99.38-6.01.72-9.05 1.02a562.414 562.414 0 0 0-36.628 2.413c-3.07.15-6.15.25-9.25.29a578.888 578.888 0 0 1-39.95-.29c-3.1-.04-6.18-.14-9.25-.29a596.338 596.338 0 0 1-36.628-2.413c-3.04-.3-6.06-.64-9.05-1.02a619.753 619.753 0 0 1-33.314-5.083c-2.95-.54-5.87-1.15-8.75-1.82a643.267 643.267 0 0 1-30.04-7.87c-2.79-.8-5.55-1.66-8.27-2.58a665.247 665.247 0 0 1-26.924-9.97c-2.64-1.05-5.24-2.17-7.8-3.35a685.203 685.203 0 0 1-24.1-11.816c-2.5-1.24-4.95-2.56-7.35-3.94a703.148 703.148 0 0 1-21.528-13.497c-2.25-1.38-4.46-2.83-6.62-4.33a721.46 721.46 0 0 1-19.077-14.25c-2.02-1.59-3.98-3.24-5.89-4.94a743.404 743.404 0 0 1-16.667-15.977c-1.64-1.73-3.23-3.53-4.76-5.37a765.35 765.35 0 0 1-11.773-15.537c-1.505-2.187-2.942-4.472-4.302-6.84a787.294 787.294 0 0 1-5.66-10.687c-.382-.883-.744-1.781-1.084-2.696-.34-.915-.658-1.85-.948-2.8-.29-.95-.556-1.914-.798-2.894-.242-.98-.46-1.977-.65-2.98-.19-1.003-.36-2.013-.51-3.033-.148-1.02-.278-2.045-.378-3.075-.1-1.03-.174-2.064-.23-3.1-.055-1.036-.102-2.073-.125-3.111-.024-1.1-.024-2.2 0-3.3.023-1.038.07-2.075.125-3.111.056-1.036-.13-2.07.23-3.1.1-1.03.23-2.055.378-3.075.15-1.02.32-2.03.51-3.033.19-1.003.408-1.998.65-2.98.242-.98.508-1.943.798-2.894.29-.95.608-1.885.948-2.8.34-.915.702-1.813 1.084-2.696a382.03 382.03 0 0 0 5.66-10.687c1.36-2.368 2.797-4.653 4.302-6.84a398.977 398.977 0 0 0 11.773-15.537c1.53-1.84 3.12-3.64-4.76-5.37a421.818 421.818 0 0 0-16.667-15.977c-1.91-1.7-3.87-3.35-5.89-4.94a433.13 433.13 0 0 0-19.077-14.25c-2.16-1.5-4.37-2.95-6.62-4.33a451.075 451.075 0 0 0-21.528-13.497c-2.4-1.38-4.85-2.7-7.35-3.94a471.03 471.03 0 0 0-24.1-11.816c-2.56-1.18-5.16-2.3-7.8-3.35a493.01 493.01 0 0 0-26.924-9.97c-2.72-.92-5.48-1.78-8.27-2.58a516.516 516.516 0 0 0-30.04-7.87c-2.88-.67-5.8-1.28-8.75-1.82a539.93 539.93 0 0 0-33.314-5.083c-2.99-.38-6.01-.72-9.05-1.02a562.414 562.414 0 0 0-36.628-2.413c-3.07-.15-6.15-.25-9.25-.29a578.888 578.888 0 0 1-39.95.29c-3.1.04-6.18.14-9.25.29a596.338 596.338 0 0 1-36.628 2.413c-3.04.3-6.06.64-9.05 1.02a619.753 619.753 0 0 1-33.314 5.083c-2.95.54-5.87 1.15-8.75 1.82a643.267 643.267 0 0 1-30.04 7.87c-2.79.8-5.55 1.66-8.27 2.58a665.247 665.247 0 0 1-26.924 9.97c-2.64 1.05-5.24 2.17-7.8 3.35a685.203 685.203 0 0 1-24.1 11.816c-2.5 1.24-4.95 2.56-7.35 3.94a703.148 703.148 0 0 1-21.528 13.497c-2.25 1.38-4.46 2.83-6.62 4.33a721.46 721.46 0 0 1-19.077 14.25c-2.02 1.59-3.98 3.24-5.89 4.94a743.404 743.404 0 0 1-16.667 15.977c-1.64 1.73-3.23 3.53-4.76 5.37a765.35 765.35 0 0 1-11.773 15.537c-1.505 2.187-2.942 4.472-4.302 6.84a787.294 787.294 0 0 1-5.66 10.687c-.382.883-.744 1.781-1.084 2.696-.34.915-.658 1.85-.948 2.8-.29.95-.556 1.914-.798 2.894-.242.98-.46 1.977-.65 2.98-.19 1.003-.36 2.013-.51 3.033-.148 1.02-.278 2.045-.378 3.075-.1 1.03-.174 2.064-.23 3.1-.055 1.036-.102 2.073-.125 3.111-.024 1.1-.024 2.2 0 3.3.023 1.038.07 2.075.125 3.111.056 1.036.13 2.07.23 3.1.1 1.03.23 2.055.378 3.075.15 1.02.32 2.03.51 3.033.19 1.003.408 1.998.65 2.98.242.98.508 1.943.798 2.894.29.95.608 1.885.948 2.8.34.915.702 1.813 1.084 2.696a382.03 382.03 0 0 0 5.66 10.687c1.36 2.368 2.797 4.653 4.302 6.84a398.977 398.977 0 0 0 11.773 15.537c1.53 1.84 3.12 3.64 4.76 5.37a421.818 421.818 0 0 0 16.667 15.977c1.91 1.7 3.87 3.35 5.89 4.94a433.13 433.13 0 0 0 19.077 14.25c2.16 1.5 4.37 2.95 6.62 4.33a451.075 451.075 0 0 0 21.528 13.497c2.4 1.38 4.85 2.7 7.35 3.94a471.03 471.03 0 0 0 24.1 11.816c2.56 1.18 5.16 2.3 7.8 3.35a493.01 493.01 0 0 0 26.924 9.97c2.72.92 5.48 1.78 8.27 2.58a516.516 516.516 0 0 0 30.04 7.87c2.88.67 5.8 1.28 8.75 1.82a539.93 539.93 0 0 0 33.314 5.083c2.99.38 6.01.72 9.05 1.02a562.414 562.414 0 0 0 36.628 2.413c3.07.15 6.15.25 9.25.29a578.888 578.888 0 0 0 39.95-.29c3.1-.04 6.18-.14 9.25-.29a596.338 596.338 0 0 0 36.628 2.413c3.04.3 6.06.64 9.05 1.02a619.753 619.753 0 0 0 33.314 5.083c2.95.54 5.87 1.15 8.75 1.82a643.267 643.267 0 0 0 30.04 7.87c2.79.8 5.55 1.66 8.27 2.58a665.247 665.247 0 0 0 26.924 9.97c2.64 1.05 5.24 2.17 7.8 3.35a685.203 685.203 0 0 0 24.1 11.816c2.5 1.24 4.95 2.56 7.35 3.94a703.148 703.148 0 0 0 21.528 13.497c2.25 1.38 4.46 2.83 6.62 4.33a721.46 721.46 0 0 0 19.077 14.25c2.02 1.59 3.98 3.24 5.89 4.94a743.404 743.404 0 0 0 16.667 15.977c1.64 1.73 3.23 3.53 4.76 5.37a765.35 765.35 0 0 0 11.773 15.537c1.505 2.187 2.942 4.472 4.302 6.84a787.294 787.294 0 0 0 5.66 10.687c.382.883.744 1.781 1.084 2.696.34.915.658 1.85.948 2.8.29.95.556 1.914.798 2.894.242.98.46 1.977.65 2.98.19 1.003.36 2.013.51 3.033.148 1.02.278 2.045.378 3.075.1 1.03.174 2.064.23 3.1.055 1.036.102 2.073.125 3.111.024 1.1.024 2.2 0 3.3-.023 1.038-.07 2.075-.125 3.111-.056 1.036-.13 2.07-.23 3.1-.1 1.03-.23 2.055-.378 3.075-.15 1.02-.32 2.03-.51 3.033-.19 1.003-.408 1.998-.65 2.98-.242.98-.508 1.943-.798 2.894-.29.95-.608 1.885-.948 2.8-.34.915-.702 1.813 1.084 2.696a382.03 382.03 0 0 0 5.66 10.687c1.36 2.368 2.797 4.653 4.302 6.84a398.977 398.977 0 0 0 11.773 15.537c1.53 1.84 3.12 3.64 4.76 5.37a421.818 421.818 0 0 0 16.667 15.977c1.91 1.7 3.87 3.35 5.89 4.94a433.13 433.13 0 0 0 19.077 14.25c2.16 1.5 4.37 2.95 6.62 4.33a451.075 451.075 0 0 0 21.528 13.497c2.4 1.38 4.85 2.7 7.35 3.94a471.03 471.03 0 0 0 24.1 11.816c2.56 1.18 5.16 2.3 7.8 3.35a493.01 493.01 0 0 0 26.924 9.97c2.72.92 5.48 1.78 8.27 2.58a516.516 516.516 0 0 0 30.04 7.87c2.88.67 5.8 1.28 8.75 1.82a539.93 539.93 0 0 0 33.314 5.083c2.99.38 6.01.72 9.05 1.02a562.414 562.414 0 0 0 36.628 2.413c3.07.15 6.15.25 9.25.29a578.888 578.888 0 0 0 39.95-.29c3.1-.04 6.18-.14 9.25-.29a596.338 596.338 0 0 0 36.628-2.413c3.04-.3 6.06-.64 9.05 1.02a619.753 619.753 0 0 0 33.314 5.083c2.95.54 5.87 1.15 8.75 1.82a643.267 643.267 0 0 0 30.04 7.87c2.79.8 5.55 1.66 8.27 2.58a665.247 665.247 0 0 0 26.924 9.97c2.64 1.05 5.24 2.17 7.8 3.35a685.203 685.203 0 0 0 24.1 11.816c2.5 1.24 4.95 2.56 7.35 3.94a703.148 703.148 0 0 0 21.528 13.497c2.25 1.38 4.46 2.83 6.62 4.33a721.46 721.46 0 0 0 19.077 14.25c2.02 1.59 3.98 3.24 5.89 4.94a743.404 743.404 0 0 0 16.667 15.977c1.64 1.73 3.23 3.53 4.76 5.37a765.35 765.35 0 0 0 11.773 15.537c1.505 2.187 2.942 4.472 4.302 6.84a787.294 787.294 0 0 0 5.66 10.687c.382.883.744 1.781 1.084 2.696.34.915.658 1.85.948 2.8.29.95.556 1.914.798 2.894.242.98.46 1.977.65 2.98.19 1.003.36 2.013.51 3.033.148 1.02.278 2.045.378 3.075.1 1.03.174 2.064.23 3.1.055 1.036.102 2.073.125 3.111.024 1.1.024 2.2 0 3.3 0 0 0 0 0 0v-4.996zm-59.838-57.833c2.686 13.466 3.03 25.652 1.163 35.09-1.538 8.29-4.624 13.842-8.472 16.07-8.118 4.706-25.49-1.404-44.234-17.913a156.479 156.479 0 0 1-6.49-5.918c7.228-7.905 14.447-17.074 21.502-27.242a329.58 329.58 0 0 1 18.334-4.847c2.59 4.53 5.31 8.96 8.15 13.26zm-11.41-81.642c-4.626-23.641-1.53-41.33 6.449-45.984 8.56-4.958 27.502 2.111 47.463 19.835a144.318 144.318 0 0 1 3.841 3.545c-7.438 7.987-14.787 17.08-21.808 26.988c-12.04 1.116-23.565 2.908-34.161 5.309a160.342 160.342 0 0 1-1.76-7.887zm110.427 27.268a347.8 347.8 0 0 0-7.785-12.803c8.168 1.033 15.994 2.404 23.343 4.08c-2.206 7.072-4.956 14.465-8.193 22.045a381.151 381.151 0 0 0-7.365-13.322zm-45.032-43.861c5.044 5.465 10.096 11.566 15.065 18.186a322.04 322.04 0 0 0-30.257-.006c4.974-6.559 10.069-12.652 15.192-18.18zM82.802 87.83a323.167 323.167 0 0 0-7.227 13.238c-3.184-7.553-5.909-14.98-8.134-22.152c7.304-1.634 15.093-2.97 23.209-3.984a321.524 321.524 0 0 0-7.848 12.897zm8.081 65.352c-8.385-.936-16.291-2.203-23.593-3.793c2.26-7.3 5.045-14.885 8.298-22.6a321.187 321.187 0 0 0 7.257 13.246c2.594 4.48 5.28 8.868 8.038 13.147zm37.542 31.03c-5.184-5.592-10.354-11.779-15.403-18.433c4.902.192 9.899.29 14.978.29c5.218 0 10.376-.117 15.453-.343c-4.985 6.774-10.018 12.97-15.028 18.486zm52.198-57.817c3.422 7.8 6.306 15.345 8.596 22.52c-7.422 1.694-15.436 3.058-23.88 4.071a382.417 382.417 0 0 0 6.859-13.026a347.403 347.403 0 0 0 7.425-13.565zm-16.898 8.101a358.557 358.557 0 0 1-12.281 19.815a329.4 329.4 0 0 1-23.444.823c-7.967 0-15.716-.248-23.178-.732a306.803 306.803 0 0 1-10.088-11.944 361.046 361.046 0 0 1-4.709-5.908c-.645-.794-1.288-1.591-1.887-2.409a343.81 343.81 0 0 1-5.227-6.947a324.973 324.973 0 0 1-3.874-5.737c-1.42-2.24-2.773-4.558-3.994-6.941a322.482 322.482 0 0 1-2.568-5.571a347.904 347.904 0 0 1-2.011-5.528c-.408-1.242-.798-2.498-1.14-3.784a337.498 337.498 0 0 1-1.272-4.772a295.553 295.553 0 0 1-.988-4.706c-.185-.92-.348-1.847-.485-2.784a267.19 267.19 0 0 1-.378-2.823c-.07-1.024-.13-2.05-.17-3.077a231.734 231.734 0 0 1-.1-3.111c-.024-1.1-.024-2.2 0-3.3.023-1.038.07-2.075.125-3.111.056-1.036.13-2.07.23-3.1.1-1.03.23-2.055.378-3.075.15-1.02.32-2.03.51-3.033.19-1.003.408-1.998.65-2.98.242-.98.508-1.943.798-2.894.29-.95.608-1.885.948-2.8.34-.915.702-1.813 1.084-2.696a382.03 382.03 0 0 0 5.66-10.687c1.36-2.368 2.797-4.653 4.302-6.84a398.977 398.977 0 0 0 11.773-15.537c1.53-1.84 3.12-3.64 4.76-5.37a421.818 421.818 0 0 0 16.667-15.977c1.91-1.7 3.87-3.35 5.89-4.94a433.13 433.13 0 0 0 19.077-14.25c2.16 1.5 4.37 2.95 6.62 4.33a451.075 451.075 0 0 0 21.528 13.497c2.4 1.38 4.85 2.7 7.35 3.94a471.03 471.03 0 0 0 24.1 11.816c2.56 1.18 5.16 2.3 7.8 3.35a493.01 493.01 0 0 0 26.924 9.97c2.72.92 5.48 1.78 8.27 2.58a516.516 516.516 0 0 0 30.04 7.87c2.88.67 5.8 1.28 8.75 1.82a539.93 539.93 0 0 0 33.314 5.083c2.99.38 6.01.72 9.05 1.02a562.414 562.414 0 0 0 36.628 2.413c3.07.15 6.15.25 9.25.29a578.888 578.888 0 0 0 39.95-.29c3.1-.04 6.18-.14 9.25-.29a596.338 596.338 0 0 0 36.628-2.413c3.04-.3 6.06-.64 9.05 1.02a619.753 619.753 0 0 0 33.314 5.083c2.95.54 5.87 1.15 8.75 1.82a643.267 643.267 0 0 0 30.04 7.87c2.79.8 5.55 1.66 8.27 2.58a665.247 665.247 0 0 0 26.924 9.97c2.64 1.05 5.24 2.17 7.8 3.35a685.203 685.203 0 0 0 24.1 11.816c2.5 1.24 4.95 2.56 7.35 3.94a703.148 703.148 0 0 0 21.528 13.497c2.25 1.38 4.46 2.83 6.62 4.33a721.46 721.46 0 0 0 19.077 14.25c2.02 1.59 3.98 3.24 5.89 4.94a743.404 743.404 0 0 0 16.667 15.977c1.64 1.73 3.23 3.53 4.76 5.37a765.35 765.35 0 0 0 11.773 15.537c1.505 2.187 2.942 4.472 4.302 6.84a787.294 787.294 0 0 0 5.66 10.687c.382.883.744 1.781 1.084 2.696.34.915.658 1.85.948 2.8.29.95.556 1.914.798 2.894.242.98.46 1.977.65 2.98.19 1.003.36 2.013.51 3.033.148 1.02.278 2.045.378 3.075.1 1.03.174 2.064.23 3.1.055 1.036.102 2.073.125 3.111.024 1.1.024 2.2 0 3.3-.023 1.038-.07 2.075-.125 3.111-.056 1.036-.13 2.07-.23 3.1-.1 1.03-.23 2.055-.378 3.075-.15 1.02-.32 2.03-.51 3.033-.19 1.003-.408 1.998-.65 2.98-.242.98-.508 1.943-.798 2.894-.29.95-.608 1.885-.948 2.8-.34.915-.702 1.813 1.084 2.696a382.03 382.03 0 0 0 5.66 10.687c1.36 2.368 2.797 4.653 4.302 6.84a398.977 398.977 0 0 0 11.773 15.537c1.53 1.84 3.12 3.64 4.76 5.37a421.818 421.818 0 0 0 16.667 15.977c1.91 1.7 3.87 3.35 5.89 4.94a433.13 433.13 0 0 0 19.077 14.25c2.16 1.5 4.37 2.95 6.62 4.33a451.075 451.075 0 0 0 21.528 13.497c2.4 1.38 4.85 2.7 7.35 3.94a471.03 471.03 0 0 0 24.1 11.816c2.56 1.18 5.16 2.3 7.8 3.35a493.01 493.01 0 0 0 26.924 9.97c2.72.92 5.48 1.78 8.27 2.58a516.516 516.516 0 0 0 30.04 7.87c2.88.67 5.8 1.28 8.75 1.82a539.93 539.93 0 0 0 33.314 5.083c2.99.38 6.01.72 9.05 1.02a562.414 562.414 0 0 0 36.628 2.413c3.07.15 6.15.25 9.25.29a578.888 578.888 0 0 0 39.95-.29c3.1-.04 6.18-.14 9.25-.29a596.338 596.338 0 0 0 36.628-2.413c3.04-.3 6.06-.64 9.05 1.02a619.753 619.753 0 0 0 33.314 5.083c2.95.54 5.87 1.15 8.75 1.82a643.267 643.267 0 0 0 30.04 7.87c2.79.8 5.55 1.66 8.27 2.58a665.247 665.247 0 0 0 26.924 9.97c2.64 1.05 5.24 2.17 7.8 3.35a685.203 685.203 0 0 0 24.1 11.816c2.5 1.24 4.95 2.56 7.35 3.94a703.148 703.148 0 0 0 21.528 13.497c2.25 1.38 4.46 2.83 6.62 4.33a721.46 721.46 0 0 0 19.077 14.25c2.02 1.59 3.98 3.24 5.89 4.94a743.404 743.404 0 0 0 16.667 15.977c1.64 1.73 3.23 3.53 4.76 5.37a765.35 765.35 0 0 0 11.773 15.537c1.505 2.187 2.942 4.472 4.302 6.84a787.294 787.294 0 0 0 5.66 10.687c.382.883.744 1.781 1.084 2.696.34.915.658 1.85.948 2.8.29.95.556 1.914.798 2.894.242.98.46 1.977.65 2.98.19 1.003.36 2.013.51 3.033.148 1.02.278 2.045.378 3.075.1 1.03.174 2.064.23 3.1.055 1.036.102 2.073.125 3.111.024 1.1.024 2.2 0 3.3z"></path></svg>